<svg width="92" height="76" viewBox="0 0 92 76" fill="none" xmlns="http://www.w3.org/2000/svg">
<path d="M19.3308 27.8027C18.3111 27.8027 17.4391 28.1734 16.7141 28.9102C15.9896 29.6476 15.6263 30.5417 15.6263 31.5923C15.6263 32.6406 15.9896 33.5346 16.7141 34.2715C17.4385 35.0078 18.3111 35.3784 19.3308 35.3784C20.3651 35.3784 21.2501 35.0078 21.988 34.2715C22.7277 33.5341 23.0944 32.6406 23.0944 31.5923C23.0944 30.5417 22.7282 29.6476 21.988 28.9102C21.2501 28.1734 20.3651 27.8027 19.3308 27.8027Z" fill="#06BE34"/>
<path d="M50.9484 27.7706C49.9299 27.7706 49.0568 28.1374 48.334 28.877C47.609 29.615 47.244 30.5084 47.244 31.5562C47.244 32.6074 47.6084 33.498 48.334 34.2383C49.0562 34.9751 49.9299 35.3452 50.9484 35.3452C51.9838 35.3452 52.8694 34.9751 53.6074 34.2383C54.347 33.498 54.7143 32.6069 54.7143 31.5562C54.7143 30.5084 54.347 29.6144 53.6074 28.877C52.8694 28.1374 51.9833 27.7706 50.9484 27.7706Z" fill="#06BE34"/>
<path d="M72.0345 27.8027C71.016 27.8027 70.1434 28.1734 69.4173 28.9102C68.6951 29.6476 68.3306 30.5417 68.3306 31.5923C68.3306 32.6406 68.6945 33.5346 69.4173 34.2715C70.1434 35.0078 71.0166 35.3784 72.0345 35.3784C73.0677 35.3784 73.9555 35.0078 74.6924 34.2715C75.4298 33.5341 75.7993 32.6406 75.7993 31.5923C75.7993 30.5417 75.4298 29.6476 74.6924 28.9102C73.9555 28.1734 73.0677 27.8027 72.0345 27.8027Z" fill="#06BE34"/>
<path d="M81.4096 0H9.96142C4.48188 0 0 4.48469 0 9.96198V50.3693C0 55.8466 4.48188 60.3313 9.96142 60.3313H38.0171C38.0171 60.3313 43.4347 75.121 45.4086 75.121C47.3865 75.121 53.2451 60.3313 53.2451 60.3313H81.4096C86.8891 60.3313 91.3716 55.8466 91.3716 50.3693V9.96198C91.371 4.48469 86.8885 0 81.4096 0ZM26.5584 37.3022C25.1455 38.8982 22.9733 39.5697 20.6079 39.5697C18.4711 39.5697 16.9101 38.9269 15.7553 38.0486H15.6871V39.1849H10.3231V15.7902H15.6871V24.7331H15.7553C17.2065 23.4927 19.1325 23.073 21.4072 22.9986C23.3496 22.9339 25.372 24.1501 26.5854 25.5505C27.7932 26.9482 28.6748 29.1384 28.6748 31.563C28.6742 34.1971 27.9734 35.7097 26.5584 37.3022ZM38.0706 39.3595H32.6001C32.6001 39.3595 32.6001 27.0687 32.6001 24.8813C32.6001 21.539 29.9592 21.1008 29.9592 21.1008V15.3075C29.9592 15.3075 37.6262 15.7756 38.0701 25.0649C38.0706 27.7436 38.0706 39.3595 38.0706 39.3595ZM59.5364 34.9227C59.0745 35.97 58.4081 36.9062 57.5259 37.7287C56.6556 38.5399 55.659 39.1646 54.5301 39.5967C53.4023 40.0288 52.2103 40.2479 50.9546 40.2479C49.7226 40.2479 48.5481 40.0282 47.4349 39.5967C46.3156 39.1646 45.3179 38.5399 44.4357 37.7287C43.5299 36.873 42.8466 35.9288 42.3818 34.89C41.9176 33.8535 41.6861 32.7522 41.6861 31.5917C41.6861 30.4284 41.9176 29.3271 42.3818 28.2906C42.8466 27.2552 43.5299 26.3071 44.4357 25.452C45.3179 24.6385 46.3156 24.0166 47.4349 23.5817C48.5481 23.1485 49.7232 22.9327 50.9546 22.9327C52.2103 22.9327 53.4023 23.1485 54.5301 23.5817C55.659 24.016 56.6556 24.6379 57.5259 25.452C58.4081 26.2744 59.0745 27.2107 59.5364 28.2585C59.9944 29.3063 60.2232 30.4161 60.2232 31.5917C60.2226 32.7646 59.9944 33.8744 59.5364 34.9227ZM81.0485 37.2459C81.0485 41.3549 80.2694 43.8589 78.4369 45.6001C76.2584 47.6693 73.1534 47.814 70.5389 47.4417V43.193C72.7207 43.4127 75.7216 41.9762 75.7165 39.1494V38.0599H75.6512C74.4259 39.7471 72.6401 40.3628 70.2663 40.3628C68.0636 40.3628 66.1539 39.5494 64.8611 38.0334C63.5671 36.5203 62.9215 34.4901 62.9215 31.9438C62.9215 29.0905 63.6409 26.8254 65.0825 25.1472C66.5212 23.4685 68.5729 22.6871 70.9231 22.6871C73.0272 22.6871 74.3516 23.1964 75.6512 24.3771H75.7165V23.0955H81.0479V37.2459H81.0485Z" fill="#06BE34"/>
</svg>
