<svg width="79" height="55" viewBox="0 0 79 55" fill="none" xmlns="http://www.w3.org/2000/svg">
<path d="M77.3488 8.58837C76.4404 5.20837 73.7632 2.54571 70.3631 1.64224C64.2038 2.74902e-06 39.4996 0 39.4996 0C39.4996 0 14.7962 2.74902e-06 8.63525 1.64224C5.2368 2.54571 2.5596 5.20837 1.6512 8.58837C-3.55375e-06 14.7159 0 27.4996 0 27.4996C0 27.4996 -3.55375e-06 40.2841 1.6512 46.4116C2.5596 49.7916 5.2368 52.4551 8.63525 53.3586C14.7962 55 39.4996 55 39.4996 55C39.4996 55 64.2038 55 70.3631 53.3586C73.7624 52.4551 76.4404 49.7924 77.3488 46.4116C79 40.285 79 27.4996 79 27.4996C79 27.4996 79 14.7159 77.3488 8.58837Z" fill="#FF0000"/>
<path d="M31 39L52 27.4992L31 16V39Z" fill="white"/>
</svg>
