<svg width="89" height="84" viewBox="0 0 89 84" fill="none" xmlns="http://www.w3.org/2000/svg">
<path d="M37.5542 0.0108408L58.3628 0C58.6547 0 58.9365 0.11508 59.145 0.326886C59.3476 0.535355 59.461 0.816369 59.4552 1.10989C59.1617 18.508 42.0213 21.2848 41.8503 21.3098C41.7961 21.3181 41.7403 21.324 41.6869 21.324H19.7042C19.3998 21.324 19.1071 21.1947 18.9011 20.9687C18.6927 20.7436 18.5909 20.4451 18.6168 20.1374C20.0911 2.7001 37.3799 0.0358572 37.5542 0.0108408ZM75.5007 55.8699H66.8317C65.1589 65.116 58.6989 84 33.8776 84C1.01276 84 0.333984 50.8816 0.333984 50.8816V30.9945C0.333984 30.3916 0.820969 29.9037 1.42386 29.9037H55.4601H66.3305H75.5007C82.6587 29.9037 88.4825 35.7276 88.4825 42.8872C88.4833 50.0461 82.6587 55.8699 75.5007 55.8699ZM75.1963 36.5089C71.7157 36.5089 68.8939 39.3308 68.8939 42.8147C68.8939 46.2953 71.7157 49.1147 75.1963 49.1147C78.6778 49.1147 81.4996 46.2953 81.4996 42.8147C81.4996 39.3299 78.6778 36.5089 75.1963 36.5089Z" fill="#06BE34"/>
</svg>
