<svg width="73" height="76" viewBox="0 0 73 76" fill="none" xmlns="http://www.w3.org/2000/svg">
<path d="M36.2849 0C16.2448 0 0 15.098 0 33.7207C0 44.7202 5.66782 54.4886 14.4373 60.6439V75.442C14.4373 75.6508 14.5543 75.8425 14.7399 75.9384C14.82 75.9801 14.9076 76 14.9953 76C15.1096 76 15.2233 75.9651 15.3198 75.8966L28.3055 66.6219C30.8738 67.1566 33.5434 67.4414 36.2849 67.4414C56.3249 67.4414 72.5697 52.3441 72.5697 33.7207C72.5697 15.098 56.3242 0 36.2849 0Z" fill="#010000"/>
<path d="M58.9363 29.8187C57.7032 28.4822 55.8819 27.805 53.5232 27.805C52.2141 27.805 51.02 28.0933 49.9724 28.6622C49.1878 29.0888 48.5058 29.5955 47.9375 30.1733V19.2588H42.8045V48.184H47.9006V37.379C47.9006 36.4827 48.0238 35.672 48.2662 34.9682C48.5072 34.2678 48.8365 33.6687 49.246 33.188C49.652 32.7115 50.1313 32.3417 50.6701 32.0877C51.2083 31.8351 51.7882 31.707 52.3941 31.707C53.4438 31.707 54.2633 31.9932 54.8323 32.5567C55.3992 33.1209 55.6868 34.1685 55.6868 35.67V48.184H60.7829V35.874C60.7829 33.186 60.1626 31.1483 58.9363 29.8187Z" fill="#F0D823"/>
<path d="M25.4539 25.2675C29.0313 25.2675 32.0843 27.5845 33.3031 30.8491H38.7792C37.3968 24.5335 31.9584 19.8181 25.4539 19.8181C17.9059 19.8181 11.7862 26.1679 11.7862 34.0007C11.7862 41.8334 17.9059 48.1832 25.4539 48.1832C31.9584 48.1832 37.3968 43.4678 38.7792 37.1529H33.3031C32.0843 40.4182 29.0313 42.7338 25.4539 42.7338C20.8062 42.7338 17.0384 38.8236 17.0384 34.0007C17.0384 29.1777 20.8062 25.2675 25.4539 25.2675Z" fill="#F0D823"/>
</svg>
