<svg width="114" height="114" viewBox="0 0 114 114" fill="none" xmlns="http://www.w3.org/2000/svg">
<path d="M21.3973 5.16563C17.7902 6.56837 14.7398 8.43868 11.6894 11.4891C8.63906 14.5172 6.76874 17.5899 5.36601 21.1746C4.00781 24.6481 3.09492 28.6336 2.82773 34.4672C2.56054 40.3008 2.49374 42.1711 2.49374 57.0445C2.49374 71.918 2.56054 73.7883 2.82773 79.6219C3.09492 85.4555 4.03007 89.441 5.36601 92.9145C6.76874 96.5215 8.63906 99.5719 11.6894 102.622C14.7398 105.673 17.7902 107.543 21.3973 108.946C24.8707 110.304 28.8562 111.217 34.6898 111.484C40.5234 111.751 42.3937 111.818 57.2672 111.818C72.1406 111.818 74.0109 111.751 79.8445 111.484C85.6781 111.217 89.6637 110.282 93.1371 108.946C96.7441 107.543 99.7945 105.673 102.845 102.622C105.895 99.5719 107.766 96.5215 109.168 92.9145C110.527 89.441 111.439 85.4555 111.707 79.6219C111.974 73.7883 112.041 71.918 112.041 57.0445C112.041 42.1711 111.974 40.3008 111.707 34.4672C111.439 28.6336 110.504 24.6481 109.168 21.1746C107.766 17.5899 105.895 14.5172 102.867 11.4891C99.8168 8.43868 96.7664 6.56837 93.1594 5.16563C89.6859 3.80743 85.7004 2.89454 79.8668 2.62735C74.0332 2.36016 72.1629 2.29337 57.2894 2.29337C42.416 2.29337 40.5457 2.36016 34.7121 2.62735C28.8562 2.87227 24.8707 3.80743 21.3973 5.16563ZM79.3992 12.4688C84.743 12.7137 87.6375 13.6043 89.5746 14.3613C92.1351 15.3633 93.9609 16.5434 95.8758 18.4582C97.7906 20.3731 98.9707 22.1988 99.9726 24.7594C100.73 26.6965 101.62 29.591 101.865 34.9348C102.132 40.7016 102.177 42.4383 102.177 57.0668C102.177 71.6953 102.11 73.4321 101.865 79.1989C101.62 84.5426 100.73 87.4371 99.9726 89.3742C98.9707 91.9348 97.7906 93.7606 95.8758 95.6754C93.9609 97.5903 92.1351 98.7703 89.5746 99.7723C87.6375 100.529 84.743 101.42 79.3992 101.665C73.6324 101.932 71.8957 101.977 57.2672 101.977C42.6387 101.977 40.9019 101.91 35.1351 101.665C29.7914 101.42 26.8969 100.529 24.9598 99.7723C22.3992 98.7703 20.5734 97.5903 18.6586 95.6754C16.7437 93.7606 15.5637 91.9348 14.5617 89.3742C13.8047 87.4371 12.9141 84.5426 12.6691 79.1989C12.4019 73.4321 12.3574 71.6953 12.3574 57.0668C12.3574 42.4383 12.4242 40.7016 12.6691 34.9348C12.9141 29.591 13.8047 26.6965 14.5617 24.7594C15.5637 22.1988 16.7437 20.3731 18.6586 18.4582C20.5734 16.5434 22.3992 15.3633 24.9598 14.3613C26.8969 13.6043 29.7914 12.7137 35.1351 12.4688C40.9019 12.2016 42.6387 12.157 57.2672 12.157C71.8957 12.157 73.6324 12.2016 79.3992 12.4688Z" fill="url(#paint0_radial_13_28)"/>
<path d="M29.1457 57.0668C29.1457 72.6082 41.7481 85.1883 57.2672 85.1883C72.7863 85.1883 85.3887 72.5859 85.3887 57.0668C85.3887 41.5477 72.8086 28.9453 57.2672 28.9453C41.7258 28.9453 29.1457 41.5254 29.1457 57.0668ZM75.525 57.0668C75.525 67.1531 67.3535 75.3246 57.2672 75.3246C47.1809 75.3246 39.0094 67.1531 39.0094 57.0668C39.0094 46.9805 47.1809 38.809 57.2672 38.809C67.3535 38.809 75.525 46.9805 75.525 57.0668Z" fill="url(#paint1_radial_13_28)"/>
<path d="M86.5242 34.4004C90.1518 34.4004 93.0926 31.4596 93.0926 27.832C93.0926 24.2044 90.1518 21.2637 86.5242 21.2637C82.8966 21.2637 79.9558 24.2044 79.9558 27.832C79.9558 31.4596 82.8966 34.4004 86.5242 34.4004Z" fill="#654C9F"/>
<defs>
<radialGradient id="paint0_radial_13_28" cx="0" cy="0" r="1" gradientUnits="userSpaceOnUse" gradientTransform="translate(4.48695 101.791) rotate(-3.00009) scale(158.378 134.62)">
<stop stop-color="#FED576"/>
<stop offset="0.2634" stop-color="#F47133"/>
<stop offset="0.6091" stop-color="#BC3081"/>
<stop offset="1" stop-color="#4C63D2"/>
</radialGradient>
<radialGradient id="paint1_radial_13_28" cx="0" cy="0" r="1" gradientUnits="userSpaceOnUse" gradientTransform="translate(30.1658 80.0309) rotate(-3.00009) scale(81.3295 69.1293)">
<stop stop-color="#FED576"/>
<stop offset="0.2634" stop-color="#F47133"/>
<stop offset="0.6091" stop-color="#BC3081"/>
<stop offset="1" stop-color="#4C63D2"/>
</radialGradient>
</defs>
</svg>
